<mxfile host="app.diagrams.net" modified="2024-02-15T15:06:36.425Z" agent="Mozilla/5.0 (Windows NT 10.0; Win64; x64) AppleWebKit/537.36 (KHTML, like Gecko) Chrome/120.0.0.0 YaBrowser/24.1.0.0 Safari/537.36" etag="QAx2aPp5rx86w6OwxfNw" version="21.8.0" type="device">
  <diagram id="C5RBs43oDa-KdzZeNtuy" name="Page-1">
    <mxGraphModel dx="1066" dy="611" grid="1" gridSize="10" guides="1" tooltips="1" connect="1" arrows="1" fold="1" page="1" pageScale="1" pageWidth="827" pageHeight="1169" math="0" shadow="0">
      <root>
        <mxCell id="WIyWlLk6GJQsqaUBKTNV-0" />
        <mxCell id="WIyWlLk6GJQsqaUBKTNV-1" parent="WIyWlLk6GJQsqaUBKTNV-0" />
        <mxCell id="dnUt6qrTZer4wCQuMmQw-16" value=" Задачи " style="swimlane;fontStyle=0;childLayout=stackLayout;horizontal=1;startSize=30;horizontalStack=0;resizeParent=1;resizeParentMax=0;resizeLast=0;collapsible=1;marginBottom=0;whiteSpace=wrap;html=1;" vertex="1" parent="WIyWlLk6GJQsqaUBKTNV-1">
          <mxGeometry x="240" y="220" width="140" height="130" as="geometry" />
        </mxCell>
        <mxCell id="dnUt6qrTZer4wCQuMmQw-17" value="&lt;p style=&quot;font-size: 15px;&quot;&gt;&lt;font style=&quot;font-size: 15px;&quot; face=&quot;Times New Roman&quot;&gt; - ID задачи&amp;nbsp;&lt;br&gt;&lt;span style=&quot;background-color: rgb(255, 255, 255);&quot;&gt;&amp;nbsp;- Название&amp;nbsp;&lt;br&gt;&lt;/span&gt;&lt;span style=&quot;background-color: rgb(255, 255, 255);&quot;&gt;- Статус&amp;nbsp;&lt;br&gt;&lt;/span&gt;&lt;span style=&quot;background-color: rgb(255, 255, 255);&quot;&gt;- Ответственный &lt;/span&gt;&lt;/font&gt;&lt;/p&gt;" style="text;strokeColor=none;fillColor=none;align=left;verticalAlign=middle;spacingLeft=4;spacingRight=4;overflow=hidden;points=[[0,0.5],[1,0.5]];portConstraint=eastwest;rotatable=0;whiteSpace=wrap;html=1;" vertex="1" parent="dnUt6qrTZer4wCQuMmQw-16">
          <mxGeometry y="30" width="140" height="100" as="geometry" />
        </mxCell>
        <mxCell id="dnUt6qrTZer4wCQuMmQw-20" value="Проекты " style="swimlane;fontStyle=0;childLayout=stackLayout;horizontal=1;startSize=30;horizontalStack=0;resizeParent=1;resizeParentMax=0;resizeLast=0;collapsible=1;marginBottom=0;whiteSpace=wrap;html=1;" vertex="1" parent="WIyWlLk6GJQsqaUBKTNV-1">
          <mxGeometry x="50" y="220" width="140" height="130" as="geometry" />
        </mxCell>
        <mxCell id="dnUt6qrTZer4wCQuMmQw-21" value="&lt;font style=&quot;font-size: 15px;&quot; face=&quot;Times New Roman&quot;&gt;- ID проекта&amp;nbsp;&lt;br style=&quot;margin: 0px; padding: 0px; box-sizing: inherit; background-color: rgb(255, 255, 255);&quot;&gt;&lt;/font&gt;&lt;span style=&quot;background-color: rgb(255, 255, 255); font-size: 15px; font-family: &amp;quot;Times New Roman&amp;quot;;&quot;&gt;&amp;nbsp;- Название&amp;nbsp;&lt;/span&gt;&lt;font style=&quot;font-size: 15px;&quot; face=&quot;Times New Roman&quot;&gt;&lt;br&gt;&lt;span style=&quot;background-color: rgb(255, 255, 255);&quot;&gt;&amp;nbsp;- Стадия&amp;nbsp;&lt;/span&gt;&lt;br style=&quot;margin: 0px; padding: 0px; box-sizing: inherit; background-color: rgb(255, 255, 255);&quot;&gt;&lt;span style=&quot;background-color: rgb(255, 255, 255);&quot;&gt;- Ресурсы  &lt;/span&gt;&lt;/font&gt;" style="text;strokeColor=none;fillColor=none;align=left;verticalAlign=middle;spacingLeft=4;spacingRight=4;overflow=hidden;points=[[0,0.5],[1,0.5]];portConstraint=eastwest;rotatable=0;whiteSpace=wrap;html=1;" vertex="1" parent="dnUt6qrTZer4wCQuMmQw-20">
          <mxGeometry y="30" width="140" height="100" as="geometry" />
        </mxCell>
        <mxCell id="dnUt6qrTZer4wCQuMmQw-24" value="Документы " style="swimlane;fontStyle=0;childLayout=stackLayout;horizontal=1;startSize=30;horizontalStack=0;resizeParent=1;resizeParentMax=0;resizeLast=0;collapsible=1;marginBottom=0;whiteSpace=wrap;html=1;" vertex="1" parent="WIyWlLk6GJQsqaUBKTNV-1">
          <mxGeometry x="420" y="220" width="140" height="130" as="geometry" />
        </mxCell>
        <mxCell id="dnUt6qrTZer4wCQuMmQw-25" value="&lt;font style=&quot;font-size: 15px;&quot; face=&quot;Times New Roman&quot;&gt;- ID документа&amp;nbsp;&lt;br style=&quot;margin: 0px; padding: 0px; box-sizing: inherit; background-color: rgb(255, 255, 255);&quot;&gt;&lt;span style=&quot;background-color: rgb(255, 255, 255);&quot;&gt;&amp;nbsp;- Название&amp;nbsp;&lt;/span&gt;&lt;br style=&quot;margin: 0px; padding: 0px; box-sizing: inherit; background-color: rgb(255, 255, 255);&quot;&gt;&lt;span style=&quot;background-color: rgb(255, 255, 255);&quot;&gt;- Версия&amp;nbsp;&lt;/span&gt;&lt;br style=&quot;margin: 0px; padding: 0px; box-sizing: inherit; background-color: rgb(255, 255, 255);&quot;&gt;&lt;span style=&quot;background-color: rgb(255, 255, 255);&quot;&gt;&amp;nbsp;- Доступ   &lt;/span&gt;&lt;/font&gt;" style="text;strokeColor=none;fillColor=none;align=left;verticalAlign=middle;spacingLeft=4;spacingRight=4;overflow=hidden;points=[[0,0.5],[1,0.5]];portConstraint=eastwest;rotatable=0;whiteSpace=wrap;html=1;" vertex="1" parent="dnUt6qrTZer4wCQuMmQw-24">
          <mxGeometry y="30" width="140" height="100" as="geometry" />
        </mxCell>
        <mxCell id="dnUt6qrTZer4wCQuMmQw-28" value="Клиенты " style="swimlane;fontStyle=0;childLayout=stackLayout;horizontal=1;startSize=30;horizontalStack=0;resizeParent=1;resizeParentMax=0;resizeLast=0;collapsible=1;marginBottom=0;whiteSpace=wrap;html=1;" vertex="1" parent="WIyWlLk6GJQsqaUBKTNV-1">
          <mxGeometry x="600" y="220" width="140" height="130" as="geometry" />
        </mxCell>
        <mxCell id="dnUt6qrTZer4wCQuMmQw-29" value="&lt;font style=&quot;font-size: 15px;&quot; face=&quot;Times New Roman&quot;&gt;- ID клиента&amp;nbsp;&lt;br style=&quot;margin: 0px; padding: 0px; box-sizing: inherit; background-color: rgb(255, 255, 255);&quot;&gt;&lt;span style=&quot;background-color: rgb(255, 255, 255);&quot;&gt;&amp;nbsp;- ФИО&amp;nbsp;&lt;/span&gt;&lt;br style=&quot;margin: 0px; padding: 0px; box-sizing: inherit; background-color: rgb(255, 255, 255);&quot;&gt;&lt;span style=&quot;background-color: rgb(255, 255, 255);&quot;&gt;- Контакты&amp;nbsp;&lt;/span&gt;&lt;br style=&quot;margin: 0px; padding: 0px; box-sizing: inherit; background-color: rgb(255, 255, 255);&quot;&gt;&lt;span style=&quot;background-color: rgb(255, 255, 255);&quot;&gt;- Заказы &lt;/span&gt;&lt;/font&gt;" style="text;strokeColor=none;fillColor=none;align=left;verticalAlign=middle;spacingLeft=4;spacingRight=4;overflow=hidden;points=[[0,0.5],[1,0.5]];portConstraint=eastwest;rotatable=0;whiteSpace=wrap;html=1;" vertex="1" parent="dnUt6qrTZer4wCQuMmQw-28">
          <mxGeometry y="30" width="140" height="100" as="geometry" />
        </mxCell>
        <mxCell id="dnUt6qrTZer4wCQuMmQw-32" value="Бухгалтерия " style="swimlane;fontStyle=0;childLayout=stackLayout;horizontal=1;startSize=30;horizontalStack=0;resizeParent=1;resizeParentMax=0;resizeLast=0;collapsible=1;marginBottom=0;whiteSpace=wrap;html=1;" vertex="1" parent="WIyWlLk6GJQsqaUBKTNV-1">
          <mxGeometry x="780" y="220" width="140" height="130" as="geometry" />
        </mxCell>
        <mxCell id="dnUt6qrTZer4wCQuMmQw-33" value="&lt;font style=&quot;font-size: 15px;&quot; face=&quot;Times New Roman&quot;&gt;- Поступления&amp;nbsp;&lt;br style=&quot;margin: 0px; padding: 0px; box-sizing: inherit; background-color: rgb(255, 255, 255);&quot;&gt;&lt;span style=&quot;background-color: rgb(255, 255, 255);&quot;&gt;- Расходы&amp;nbsp;&lt;/span&gt;&lt;br style=&quot;margin: 0px; padding: 0px; box-sizing: inherit; background-color: rgb(255, 255, 255);&quot;&gt;&lt;span style=&quot;background-color: rgb(255, 255, 255);&quot;&gt;- Отчеты&amp;nbsp;&lt;/span&gt;&lt;br style=&quot;margin: 0px; padding: 0px; box-sizing: inherit; background-color: rgb(255, 255, 255);&quot;&gt;&lt;span style=&quot;background-color: rgb(255, 255, 255);&quot;&gt;- Счета     &lt;/span&gt;&lt;/font&gt;" style="text;strokeColor=none;fillColor=none;align=left;verticalAlign=middle;spacingLeft=4;spacingRight=4;overflow=hidden;points=[[0,0.5],[1,0.5]];portConstraint=eastwest;rotatable=0;whiteSpace=wrap;html=1;" vertex="1" parent="dnUt6qrTZer4wCQuMmQw-32">
          <mxGeometry y="30" width="140" height="100" as="geometry" />
        </mxCell>
        <mxCell id="dnUt6qrTZer4wCQuMmQw-36" value="Персонал " style="swimlane;fontStyle=0;childLayout=stackLayout;horizontal=1;startSize=30;horizontalStack=0;resizeParent=1;resizeParentMax=0;resizeLast=0;collapsible=1;marginBottom=0;whiteSpace=wrap;html=1;" vertex="1" parent="WIyWlLk6GJQsqaUBKTNV-1">
          <mxGeometry x="950" y="220" width="140" height="130" as="geometry" />
        </mxCell>
        <mxCell id="dnUt6qrTZer4wCQuMmQw-37" value="&lt;font style=&quot;font-size: 15px;&quot; face=&quot;Times New Roman&quot;&gt;- ID сотрудника&amp;nbsp;&lt;br style=&quot;margin: 0px; padding: 0px; box-sizing: inherit; background-color: rgb(255, 255, 255);&quot;&gt;&lt;span style=&quot;background-color: rgb(255, 255, 255);&quot;&gt;&amp;nbsp;- ФИО&amp;nbsp;&lt;/span&gt;&lt;br style=&quot;margin: 0px; padding: 0px; box-sizing: inherit; background-color: rgb(255, 255, 255);&quot;&gt;&lt;span style=&quot;background-color: rgb(255, 255, 255);&quot;&gt;- Кадровые данные&lt;/span&gt;&lt;br style=&quot;margin: 0px; padding: 0px; box-sizing: inherit; background-color: rgb(255, 255, 255);&quot;&gt;&lt;span style=&quot;background-color: rgb(255, 255, 255);&quot;&gt;&amp;nbsp;- Рабочий график&amp;nbsp;&lt;/span&gt;&lt;/font&gt;" style="text;strokeColor=none;fillColor=none;align=left;verticalAlign=middle;spacingLeft=4;spacingRight=4;overflow=hidden;points=[[0,0.5],[1,0.5]];portConstraint=eastwest;rotatable=0;whiteSpace=wrap;html=1;" vertex="1" parent="dnUt6qrTZer4wCQuMmQw-36">
          <mxGeometry y="30" width="140" height="100" as="geometry" />
        </mxCell>
        <mxCell id="dnUt6qrTZer4wCQuMmQw-42" style="edgeStyle=orthogonalEdgeStyle;rounded=0;orthogonalLoop=1;jettySize=auto;html=1;entryX=0;entryY=0.5;entryDx=0;entryDy=0;" edge="1" parent="WIyWlLk6GJQsqaUBKTNV-1" source="dnUt6qrTZer4wCQuMmQw-21" target="dnUt6qrTZer4wCQuMmQw-17">
          <mxGeometry relative="1" as="geometry" />
        </mxCell>
        <mxCell id="dnUt6qrTZer4wCQuMmQw-43" style="edgeStyle=orthogonalEdgeStyle;rounded=0;orthogonalLoop=1;jettySize=auto;html=1;entryX=0;entryY=0.5;entryDx=0;entryDy=0;" edge="1" parent="WIyWlLk6GJQsqaUBKTNV-1" source="dnUt6qrTZer4wCQuMmQw-17" target="dnUt6qrTZer4wCQuMmQw-25">
          <mxGeometry relative="1" as="geometry" />
        </mxCell>
        <mxCell id="dnUt6qrTZer4wCQuMmQw-45" style="edgeStyle=orthogonalEdgeStyle;rounded=0;orthogonalLoop=1;jettySize=auto;html=1;entryX=0;entryY=0.5;entryDx=0;entryDy=0;" edge="1" parent="WIyWlLk6GJQsqaUBKTNV-1" source="dnUt6qrTZer4wCQuMmQw-25" target="dnUt6qrTZer4wCQuMmQw-29">
          <mxGeometry relative="1" as="geometry" />
        </mxCell>
        <mxCell id="dnUt6qrTZer4wCQuMmQw-46" style="edgeStyle=orthogonalEdgeStyle;rounded=0;orthogonalLoop=1;jettySize=auto;html=1;exitX=1;exitY=0.5;exitDx=0;exitDy=0;entryX=0;entryY=0.5;entryDx=0;entryDy=0;" edge="1" parent="WIyWlLk6GJQsqaUBKTNV-1" source="dnUt6qrTZer4wCQuMmQw-29" target="dnUt6qrTZer4wCQuMmQw-33">
          <mxGeometry relative="1" as="geometry" />
        </mxCell>
        <mxCell id="dnUt6qrTZer4wCQuMmQw-47" style="edgeStyle=orthogonalEdgeStyle;rounded=0;orthogonalLoop=1;jettySize=auto;html=1;entryX=0;entryY=0.5;entryDx=0;entryDy=0;" edge="1" parent="WIyWlLk6GJQsqaUBKTNV-1" source="dnUt6qrTZer4wCQuMmQw-33" target="dnUt6qrTZer4wCQuMmQw-37">
          <mxGeometry relative="1" as="geometry" />
        </mxCell>
      </root>
    </mxGraphModel>
  </diagram>
</mxfile>
